<?xml version="1.0" encoding="UTF-8"?>
<svg xmlns="http://www.w3.org/2000/svg" xmlns:xlink="http://www.w3.org/1999/xlink" width="16pt" height="16pt" viewBox="0 0 16 16" version="1.1">
<g id="surface1">
<path style=" stroke:none;fill-rule:nonzero;fill:rgb(100%,100%,100%);fill-opacity:1;" d="M 8.882812 6.03125 C 9.011719 6.074219 8.40625 6.21875 8.4375 6.375 C 8.46875 6.542969 8.421875 6.84375 8.289062 7.039062 C 8.15625 7.234375 7.964844 7.414062 7.636719 7.671875 C 7.578125 7.71875 7.515625 7.742188 7.445312 7.746094 C 6.800781 7.769531 6.460938 7.90625 6.230469 8.078125 C 5.988281 8.273438 5.914062 8.390625 5.890625 8.464844 C 5.871094 8.539062 5.871094 8.683594 5.964844 9.003906 C 6.089844 9.4375 6.304688 9.777344 6.761719 10.144531 C 7.214844 10.511719 7.765625 10.609375 8.222656 10.609375 C 9.261719 10.609375 10.0625 9.503906 10.0625 8.242188 C 10.0625 7.292969 9.605469 6.433594 8.882812 6.03125 Z M 8.882812 6.03125 "/>
<path style=" stroke:none;fill-rule:nonzero;fill:rgb(100%,100%,100%);fill-opacity:1;" d="M 10.429688 0.328125 C 8.792969 1.4375 8.078125 2.558594 7.78125 3.730469 C 7.78125 3.730469 7.917969 3.707031 7.992188 3.707031 C 10.070312 3.707031 11.8125 5.171875 12.246094 7.117188 C 11.703125 6.125 10.660156 5.441406 9.441406 5.441406 L 9.277344 5.449219 C 10.398438 5.972656 11.117188 7.09375 11.117188 8.332031 C 11.117188 9.980469 9.855469 11.375 8.226562 11.535156 C 7.503906 11.550781 6.695312 11.316406 6.144531 10.941406 C 5.335938 10.394531 4.945312 9.914062 4.746094 9.332031 C 4.476562 8.554688 4.566406 8.226562 5.292969 7.746094 C 5.6875 7.496094 6.242188 7.328125 7.148438 7.296875 C 7.980469 6.753906 8.046875 6.542969 8.003906 6.378906 C 7.746094 6.308594 7.035156 6.035156 6.402344 5.539062 C 6.402344 5.539062 5.855469 5.058594 5.472656 4.796875 C 5.324219 4.308594 5.210938 3.765625 5.402344 2.738281 C 4.65625 2.980469 4.050781 3.625 3.535156 4.199219 L 3.5 4.199219 C 3.191406 3.605469 3.21875 2.128906 3.21875 2.128906 C 1.605469 3.371094 0.238281 5.398438 0.238281 8.144531 C 0.238281 12.359375 3.710938 15.78125 7.992188 15.78125 C 12.273438 15.78125 15.746094 12.359375 15.746094 8.144531 C 15.746094 6.179688 14.992188 4.390625 13.753906 3.039062 C 13.753906 3.039062 13.640625 2.925781 13.566406 2.953125 C 14.003906 3.679688 14.273438 4.511719 14.347656 5.398438 L 13.878906 4.726562 C 12.320312 2.734375 10.894531 2.15625 10.429688 0.328125 Z M 10.429688 0.328125 "/>
</g>
</svg>
